<svg width="410" height="80" viewBox="0 0 410 80" fill="none" xmlns="http://www.w3.org/2000/svg">
<path d="M98.7503 0L80.8667 38.0767L112.747 39.6309L131.408 0H98.7503Z" fill="#5E60F9"/>
<path d="M83.1989 39.6309H51.3188L69.2029 79.2618H101.86L83.1989 39.6309Z" fill="#5E60F9"/>
<path d="M37.323 0L0 79.2618H32.6577L69.203 0H37.323Z" fill="#5E60F9"/>
<path d="M141.563 78.4177H131.29V35.6945H140.131L140.973 39.3251H141.394C143.078 36.9047 145.661 35.6945 149.141 35.6945H156.972V45.4041H149.814C147.12 45.4041 145.071 46.1219 143.668 47.5571C142.265 48.9928 141.563 51.0894 141.563 53.8475V78.4177ZM173.644 35.6945V78.4177H163.371V35.6945H173.644ZM174.065 18.8079V28.4333H163.034V18.8079H174.065ZM197.81 79.2618C194.723 79.2618 192.028 78.6851 189.726 77.5311C187.425 76.3771 185.643 74.8008 184.38 72.8027C183.117 70.8046 182.485 68.5669 182.485 66.0905C182.485 61.8126 183.945 58.4209 186.864 55.9163C189.783 53.4113 194.105 52.1588 199.831 52.1588H210.019V51.1458C210.019 48.8378 209.304 46.9665 207.872 45.5308C206.441 44.0956 204.518 43.3779 202.104 43.3779C199.915 43.3779 198.147 43.8845 196.799 44.8976C195.453 45.911 194.61 47.0927 194.274 48.4438H184.085C184.309 46.0798 185.151 43.8563 186.611 41.7736C188.071 39.691 190.119 38.0164 192.758 36.7499C195.396 35.4834 198.512 34.8502 202.104 34.8502C205.809 34.8502 209.037 35.5397 211.788 36.9188C214.538 38.2978 216.643 40.2257 218.103 42.7024C219.562 45.1793 220.292 47.9937 220.292 51.1458V78.4177H211.367L210.524 74.1958H210.104C209.149 75.4904 207.577 76.6583 205.388 77.6999C203.199 78.741 200.673 79.2618 197.81 79.2618ZM199.578 70.9031C202.834 70.9031 205.388 70.0025 207.241 68.201C209.093 66.3999 210.019 63.9513 210.019 60.8556V59.5888H200.841C198.147 59.5888 196.14 60.1096 194.821 61.1512C193.502 62.1923 192.842 63.5855 192.842 65.3306C192.842 67.0193 193.432 68.3698 194.61 69.3832C195.789 70.3966 197.445 70.9031 199.578 70.9031ZM253.468 78.4177H244.122C240.697 78.4177 238.059 77.5311 236.206 75.7578C234.354 73.9849 233.427 71.522 233.427 68.3698V45.4041H226.691V35.6945H233.427V22.8607H243.785V35.6945H253.468V45.4041H243.785V66.2593C243.785 67.2163 244.009 67.9198 244.458 68.3698C244.907 68.8203 245.609 69.0456 246.563 69.0456H253.468V78.4177ZM272.919 35.6945V78.4177H262.646V35.6945H272.919ZM273.339 18.8079V28.4333H262.309V18.8079H273.339ZM322.345 35.6945L307.61 78.4177H293.295L278.644 35.6945H289.338L299.611 66.2593H301.295L311.568 35.6945H322.345ZM344.912 79.2618C341.656 79.2618 338.751 78.5158 336.197 77.0242C333.643 75.5325 331.65 73.4359 330.218 70.7343C328.787 68.0322 328.071 64.9083 328.071 61.3621V35.6945H338.344V60.0111C338.344 62.7691 339.214 65.035 340.954 66.8079C342.694 68.5812 344.884 69.4674 347.522 69.4674C350.272 69.4674 352.546 68.553 354.342 66.7237C356.139 64.894 357.037 62.6567 357.037 60.0111V35.6945H367.31V78.4177H358.384L357.542 74.2804H357.121C355.999 75.631 354.356 76.7994 352.195 77.7841C350.034 78.7693 347.606 79.2618 344.912 79.2618ZM410 69.0456V78.4177H375.056V69.4674L396.191 45.0664H375.477V35.6945H409.579V44.6444L388.529 69.0456H410Z" fill="black"/>
</svg>
