<svg width="402" height="80" viewBox="0 0 402 80" fill="none" xmlns="http://www.w3.org/2000/svg">
<path d="M98.7503 0L80.8667 38.0767L112.747 39.6309L131.408 0H98.7503Z" fill="#5E60F9"/>
<path d="M83.1989 39.6309H51.3188L69.2029 79.2618H101.86L83.1989 39.6309Z" fill="#5E60F9"/>
<path d="M37.323 0L0 79.2618H32.6577L69.203 0H37.323Z" fill="#5E60F9"/>
<path d="M198.906 35.2705C209.233 35.2705 216.822 41.9192 216.822 52.7139V77.7451H207.043L206.729 72.8955C204.226 77.041 199.219 78.918 194.525 78.918C187.015 78.918 179.817 74.225 179.817 66.0117C179.817 56.7816 188.58 52.7921 196.794 52.792C200.236 52.792 202.975 53.4175 206.183 54.5908V52.166C206.183 47.551 203.522 44.2656 198.75 44.2656C195.386 44.2656 192.257 45.9083 191.083 49.1934L181.304 47.2383C183.103 39.3379 191.318 35.2706 198.906 35.2705ZM239.196 22.3633V36.4434H250.462V45.2822H239.196V63.1953C239.196 66.6371 240.449 69.375 244.282 69.375C246.316 69.3749 248.194 68.749 250.071 67.9668L252.026 76.1807C249.054 78.0578 245.533 78.918 242.091 78.918C233.329 78.9178 228.244 73.4426 228.244 64.5254V45.2822H221.203V36.4434H228.244V22.3633H239.196ZM332.998 36.4434V59.5195C332.998 64.4473 335.267 69.0623 340.821 69.0625C346.376 69.0625 348.644 64.4474 348.645 59.5195V36.4434H359.598V59.2842C359.598 70.5482 352.635 78.918 340.665 78.918C329.087 78.9179 322.046 70.9393 322.046 59.2842V36.4434H332.998ZM151.967 35.8965C152.671 35.8965 153.453 35.9745 154.157 36.0527C154.861 36.2092 155.566 36.365 156.113 36.5996L154.939 47.3945C153.766 46.847 152.592 46.8467 151.341 46.8467C144.691 46.8467 141.953 51.3058 141.953 57.4854V77.7451H131V36.4434H141.092L141.483 42.7012C143.517 38.3209 147.116 35.8965 151.967 35.8965ZM173.012 36.4434V77.7451H162.059V36.4434H173.012ZM269.395 36.4434V77.7451H258.442V36.4434H269.395ZM286.605 36.4434L295.838 66.168L305.226 36.4434H316.804L301.313 77.7451H290.126L274.637 36.4434H286.605ZM400.67 36.4434V43.7188L380.564 68.9062H402V77.7451H367.029V70.4707L387.058 45.2822H367.577V36.4434H400.67ZM198.594 60.1445C195.23 60.1445 190.613 61.3183 190.613 65.4639C190.613 68.9839 194.134 70.4707 197.186 70.4707C201.958 70.4706 206.183 67.1849 206.183 62.1006V61.709C205.009 61.2397 203.835 60.849 202.505 60.5361C201.175 60.3015 199.924 60.1445 198.594 60.1445ZM167.535 19C171.134 19.0001 173.794 21.5814 173.794 25.2578C173.794 28.7777 171.134 31.5155 167.535 31.5156C164.093 31.5156 161.276 28.7778 161.276 25.2578C161.276 21.7378 163.936 19 167.535 19ZM263.918 19C267.517 19 270.177 21.5814 270.177 25.2578C270.177 28.7778 267.517 31.5156 263.918 31.5156C260.476 31.5155 257.659 28.7777 257.659 25.2578C257.659 21.7379 260.319 19.0002 263.918 19Z" fill="black"/>
</svg>
